<svg version="1.1" id="Layer_1" xmlns="http://www.w3.org/2000/svg" x="0" y="0" viewBox="0 0 400 400" xml:space="preserve"><style>.st0{fill:#fff;stroke:#000;stroke-miterlimit:10}</style><path class="st0" d="M200 13c49.9 0 96.9 19.5 132.2 54.8S387 150.1 387 200s-19.5 96.9-54.8 132.2S249.9 387 200 387s-96.9-19.5-132.2-54.8S13 249.9 13 200s19.5-96.9 54.8-132.2S150.1 13 200 13m0-13C89.5 0 0 89.5 0 200s89.5 200 200 200 200-89.5 200-200S310.5 0 200 0z"/><path class="st0" d="M95.5 75h30v248h-30z"/><path class="st0" d="M125.5 75h-30v248h30zm76 6h12v230h-12z"/><path class="st0" d="M222.5 72h-30v248h30zm65 12h12v230h-12z"/><path class="st0" d="M308.5 75h-30v248h30z"/><path class="st0" d="M183 194.5h132v12H183z"/><path class="st0" d="M324 185.5H174v30h150zm-256 132h263v12H68z"/><path class="st0" d="M340 308.5H59v30h281zm0-248H59v30h281z"/></svg>