<svg version="1.1" id="Layer_1" xmlns="http://www.w3.org/2000/svg" x="0" y="0" viewBox="0 0 400 400" xml:space="preserve"><style>.st0{fill:#fff}</style><path d="M200 13c49.9 0 96.9 19.5 132.2 54.8C367.5 103.1 387 150.1 387 200s-19.5 96.9-54.8 132.2C296.9 367.5 249.9 387 200 387s-96.9-19.5-132.2-54.8C32.5 296.9 13 249.9 13 200s19.5-96.9 54.8-132.2C103.1 32.5 150.1 13 200 13m0-13C89.5 0 0 89.5 0 200s89.5 200 200 200 200-89.5 200-200S310.5 0 200 0z"/><path class="st0" d="M95.5 75h30v248h-30z"/><path d="M125.5 75h-30v248h30V75z"/><path class="st0" d="M201.5 81h12v230h-12z"/><path d="M222.5 72h-30v248h30V72z"/><path class="st0" d="M287.5 84h12v230h-12z"/><path d="M308.5 75h-30v248h30V75z"/><path class="st0" d="M183 194.5h132v12H183z"/><path d="M324 185.5H174v30h150v-30z"/><path class="st0" d="M68 317.5h263v12H68z"/><path d="M340 308.5H59v30h281v-30zm0-248H59v30h281v-30z"/></svg>